<svg width="229" height="263" viewBox="0 0 229 263" fill="none" xmlns="http://www.w3.org/2000/svg">
<path d="M83.5091 41.5367C81.7914 44.9723 80.0454 48.436 80.0454 51.8998V69.2185C80.0454 70.9363 80.0454 72.654 80.0454 72.654C81.7914 74.4 81.7914 74.4 80.0454 74.4L83.5091 77.8637L62.7549 88.2268V72.654L42.0006 88.2268V173.018L62.7549 186.845V124.582H57.5733L45.4362 103.8H83.5091C81.7914 107.263 80.0454 110.727 80.0454 114.191V207.627C80.0454 209.345 80.0454 211.091 80.0454 212.809C81.7914 212.809 81.7914 214.555 81.7914 214.555L83.5091 219.736L19.5004 183.409C21.2181 181.663 22.9641 178.2 22.9641 174.736V122.836C22.9641 121.118 22.9641 119.372 22.9641 117.654C21.2181 117.654 21.2181 117.654 21.2181 117.654L19.5004 114.191C21.2181 112.473 22.9641 110.727 22.9641 107.263V86.509C22.9641 83.0453 22.9641 81.3275 22.9641 81.3275C21.2181 79.5815 21.2181 79.5815 21.2181 79.5815L19.5004 76.1178L83.5091 41.5367ZM107.727 27.6818V211.091L116.372 216.273L126.764 211.091V192.054L147.518 181.663C147.518 185.127 145.8 190.309 145.8 192.054V212.809C145.8 214.555 145.8 216.273 145.8 216.273C145.8 217.99 147.518 217.99 147.518 217.99V221.454L116.372 240.491L85.2551 221.454C86.9729 219.736 88.6907 216.273 88.6907 212.809V48.436C88.6907 46.7182 88.6907 44.9723 86.9729 43.2545L85.2551 39.7908L107.727 27.6818ZM114.655 19.0365L17.7544 74.4V186.845L114.655 243.954L211.555 186.845V74.4L114.655 19.0365ZM114.655 0L131.945 10.3912L130.227 13.8268L133.691 15.5728L137.155 12.109L168.3 31.1455L166.554 34.6092L170.018 38.073L173.482 32.8633L204.627 51.8998L202.881 55.3635L206.345 57.0813L209.809 53.6457L228.845 65.7547V86.509H225.382V89.9727H228.845V128.046H225.382V131.481H228.845V171.3H225.382V174.736H228.845V197.236L209.809 205.881L206.345 204.164L202.881 205.881L204.627 209.345L173.482 228.382L170.018 223.2L166.554 226.664L168.3 230.099L137.155 249.136L133.691 245.672L130.227 247.418L131.945 250.882L114.655 262.991L95.6181 250.882L97.3641 247.418L93.9004 245.672L92.1544 249.136L59.2911 230.099L61.0089 226.664L57.5733 223.2L55.8274 228.382L22.9641 209.345L26.4278 205.881L21.2181 204.164L19.5004 205.881L0.463867 197.236V174.736H3.92761V171.3H0.463867V131.481H3.92761V128.046H0.463867V89.9727H3.92761V86.509H0.463867V65.7547L19.5004 53.6457L22.9641 57.0813L26.4278 55.3635L24.6819 51.8998L55.8274 32.8633L57.5733 38.073L61.0089 34.6092L59.2911 31.1455L92.1544 12.109L93.9004 15.5728L97.3641 13.8268L95.6181 10.3912L114.655 0ZM173.482 72.654V107.263L185.591 114.191L194.236 112.473V88.2268L173.482 72.654ZM150.982 41.5367L215.019 77.8637C213.273 79.5815 211.555 81.3275 211.555 84.7912V114.191C211.555 115.909 211.555 117.654 211.555 117.654C213.273 119.372 213.273 119.372 213.273 119.372L215.019 122.836L185.591 134.945L173.482 128.046V198.982V200.7C173.482 202.418 173.482 202.418 173.482 202.418V204.164H175.2L150.982 219.736C152.728 214.555 154.445 211.091 154.445 207.627C154.445 207.627 154.445 179.945 154.445 122.836C154.445 121.118 154.445 119.372 154.445 117.654C152.728 117.654 152.728 115.909 152.728 115.909L150.982 114.191C152.728 112.473 154.445 109.009 154.445 107.263V51.8998C154.445 50.182 154.445 50.182 154.445 48.436C152.728 46.7182 152.728 46.7182 152.728 46.7182L150.982 41.5367Z" fill="black"/>
</svg>
